<svg version="1.1" id="Layer_1" xmlns="http://www.w3.org/2000/svg" xmlns:xlink="http://www.w3.org/1999/xlink" x="0px" y="0px"
	 width="100%" viewBox="0 0 1804 424" enable-background="new 0 0 1804 424" xml:space="preserve">
<path fill="#FFFFFF" opacity="1.000000" stroke="none" 
	d="
M1317.000000,425.000000 
	C878.049133,425.000000 439.598236,425.000000 1.073666,425.000000 
	C1.073666,283.731628 1.073666,142.463226 1.073666,1.097410 
	C602.333313,1.097410 1203.666626,1.097410 1804.972168,1.097410 
	C1804.972168,142.402054 1804.972168,283.701019 1804.972168,425.000000 
	C1642.463013,425.000000 1479.981445,425.000000 1317.000000,425.000000 
M270.942352,324.554688 
	C298.549500,341.909882 328.389069,348.174347 360.696228,343.137604 
	C430.099976,332.317291 478.095886,263.863068 464.732422,194.533691 
	C454.320282,140.515656 411.508392,100.467140 359.092102,92.449318 
	C311.075195,85.104439 259.824036,105.798569 231.484726,151.933487 
	C223.370239,165.143433 217.882965,179.370956 215.180176,194.764801 
	C223.370041,194.764801 231.129181,194.764801 238.827454,194.764801 
	C250.944901,142.815567 301.298035,106.695679 358.035919,115.994904 
	C405.704895,123.807755 442.391846,166.650467 443.245911,216.310410 
	C444.113953,266.784271 408.681030,310.535797 358.785126,319.669373 
	C300.769287,330.289307 249.638474,291.882812 238.731277,241.171143 
	C230.933517,241.171143 223.129623,241.171143 215.008713,241.171143 
	C222.300858,276.498749 240.595703,304.125122 270.942352,324.554688 
M318.154053,166.520447 
	C341.498077,157.510010 365.476959,162.898849 381.531311,180.763336 
	C396.968903,197.941544 400.369720,223.137314 389.459351,243.538910 
	C379.098206,262.913452 362.517151,273.398773 340.624725,273.685120 
	C318.730133,273.971497 302.127594,263.783356 290.919708,244.877960 
	C290.021698,243.363235 288.440399,241.230347 287.097534,241.170898 
	C279.172791,240.820007 271.224640,240.998062 263.190765,240.998062 
	C270.203613,269.041626 301.329620,303.186737 349.626434,297.782501 
	C390.710876,293.185303 421.122253,257.545898 420.190521,215.807632 
	C419.298462,175.847412 387.544067,141.229034 348.838196,138.020004 
	C308.848083,134.704498 269.578491,160.767807 263.278839,195.003967 
	C270.641174,195.003967 277.967773,194.857651 285.283234,195.079498 
	C288.021027,195.162537 289.343231,194.266418 290.609894,191.864532 
	C296.632477,180.444611 305.592407,172.059998 318.154053,166.520447 
M113.525551,236.596146 
	C113.419785,236.724869 113.293442,236.842300 113.214737,236.985855 
	C113.150986,237.102127 113.144485,237.249817 113.112595,237.383575 
	C114.508888,237.589294 115.904884,237.971939 117.301521,237.974274 
	C139.786057,238.011749 162.271210,237.924423 184.754715,238.081436 
	C188.214569,238.105606 190.915848,237.495087 192.763901,234.463821 
	C194.629868,231.403137 197.369370,230.908325 200.812561,230.921234 
	C235.621552,231.051819 270.431671,231.080246 305.240204,230.894882 
	C309.338074,230.873047 311.645844,231.956253 313.922516,235.491760 
	C322.297211,248.497040 339.151031,253.059921 353.116791,246.580750 
	C367.286621,240.006897 374.496613,224.062973 370.090485,209.045776 
	C365.727325,194.175110 351.446991,184.868881 335.983948,186.762207 
	C324.695343,188.144394 316.884399,194.517685 311.405273,203.999130 
	C273.986084,203.999130 236.847443,203.999161 199.708801,203.999146 
	C199.209137,203.999146 198.623825,204.170135 198.224350,203.970047 
	C196.271866,202.992249 194.410431,201.827560 192.437561,200.896912 
	C190.190842,199.837097 187.871277,198.152405 185.564529,198.120911 
	C164.915054,197.838974 144.261414,197.860260 123.609001,197.796402 
	C120.185837,197.785828 116.762604,197.794907 112.685432,197.794907 
	C119.524841,205.011795 125.830093,211.665054 131.000168,217.120468 
	C125.395546,223.377106 119.733078,229.698318 113.525551,236.596146 
M532.788818,185.271683 
	C525.022644,203.545349 524.647278,222.096115 531.122314,240.742767 
	C544.249268,278.545105 587.381653,297.471161 622.351074,280.906982 
	C654.988464,265.447449 671.452026,225.811584 659.480408,191.517975 
	C649.393921,162.624268 624.548157,143.069702 596.405396,143.147888 
	C566.626953,143.230621 545.915405,158.123672 532.788818,185.271683 
M695.872375,254.499954 
	C695.872803,261.330414 695.806519,268.161713 695.891724,274.991150 
	C695.985352,282.495483 700.202209,286.877380 707.583618,286.946960 
	C719.410706,287.058441 731.248657,287.282349 743.065918,286.925323 
	C773.457520,286.007111 793.283752,257.217285 783.014343,229.202133 
	C779.700134,220.161057 773.588684,213.294846 765.809753,207.786850 
	C774.968811,193.747528 775.950989,179.461395 767.423828,165.271942 
	C759.269409,151.702866 746.434326,146.597137 730.998779,146.969254 
	C724.005798,147.137802 717.005432,146.992035 710.008423,146.999191 
	C699.430115,147.009995 695.879700,150.520813 695.876099,161.039413 
	C695.865601,191.859589 695.872375,222.679764 695.872375,254.499954 
M955.677429,242.502197 
	C955.677429,237.750748 955.677429,232.999298 955.677429,228.005005 
	C971.258545,228.005005 986.234192,228.059448 1001.209045,227.981354 
	C1008.377808,227.943985 1013.189331,223.244476 1013.095520,216.677765 
	C1013.005798,210.396469 1008.228455,205.935013 1001.233826,205.892792 
	C987.903748,205.812317 974.572815,205.868134 961.242249,205.867371 
	C959.471680,205.867279 957.701111,205.867371 955.988220,205.867371 
	C955.988220,193.316940 955.988220,181.399536 955.988220,169.132629 
	C957.930786,169.132629 959.567078,169.132629 961.203369,169.132614 
	C976.533508,169.132492 991.863831,169.160248 1007.193726,169.100159 
	C1009.326416,169.091812 1011.583679,169.018219 1013.564270,168.337585 
	C1018.482239,166.647522 1021.509888,161.328308 1020.695862,156.472321 
	C1019.741821,150.780899 1015.299194,147.042145 1008.999268,147.020508 
	C988.836914,146.951294 968.674316,146.993210 948.511780,146.994308 
	C936.720886,146.994949 933.325623,150.360077 933.324219,162.079498 
	C933.319702,198.738602 933.321411,235.397690 933.327209,272.056793 
	C933.327454,273.554993 933.280396,275.066284 933.450317,276.549164 
	C934.183838,282.952454 938.259094,286.915253 944.695740,286.947784 
	C966.190735,287.056396 987.686829,287.055359 1009.181946,286.968903 
	C1015.889526,286.941925 1020.940674,281.902191 1020.830872,275.808411 
	C1020.718872,269.594574 1015.803711,264.932190 1008.964172,264.896545 
	C992.967896,264.813202 976.970886,264.868347 960.974182,264.867401 
	C959.351562,264.867310 957.728943,264.867401 955.677429,264.867401 
	C955.677429,257.426270 955.677429,250.464111 955.677429,242.502197 
M1617.970947,169.064651 
	C1624.906860,167.573822 1628.520264,163.267273 1628.053223,157.048141 
	C1627.604858,151.078079 1622.848022,147.034058 1615.946289,147.017822 
	C1594.950562,146.968399 1573.954346,146.959946 1552.958618,147.020523 
	C1545.061401,147.043320 1540.907471,151.165436 1540.897583,159.055206 
	C1540.849365,197.714233 1540.846436,236.373398 1540.900269,275.032410 
	C1540.911133,282.834137 1545.159424,286.914062 1553.089111,286.983276 
	C1561.420166,287.056000 1569.752441,287.000458 1578.084106,287.000458 
	C1590.748291,287.000488 1603.412842,287.055756 1616.076538,286.978394 
	C1623.274048,286.934448 1628.172852,282.258911 1628.082275,275.782715 
	C1627.993652,269.442902 1623.261353,265.047089 1616.301758,264.886200 
	C1613.970093,264.832306 1611.636353,264.874512 1609.303467,264.874481 
	C1594.018311,264.874176 1578.733154,264.874329 1563.000366,264.874329 
	C1563.000366,258.511597 1563.000244,252.557327 1563.000244,246.603058 
	C1563.000244,240.494675 1563.000366,234.386292 1563.000366,228.000580 
	C1564.636475,228.000580 1565.771484,228.000595 1566.906616,228.000580 
	C1580.737183,228.000366 1594.567993,228.033737 1608.398438,227.984131 
	C1614.286621,227.963013 1618.467041,225.112015 1619.982788,220.318787 
	C1622.336182,212.876282 1617.111572,205.969772 1608.822998,205.909256 
	C1593.703735,205.798859 1578.583008,205.877884 1563.326416,205.877884 
	C1563.326416,193.429276 1563.326416,181.391937 1563.326416,169.107773 
	C1581.459717,169.107773 1599.267822,169.107773 1617.970947,169.064651 
M1116.700806,165.966248 
	C1129.304077,165.341644 1140.684448,168.634277 1150.831299,176.275650 
	C1152.604492,177.610977 1154.947510,178.572861 1157.144165,178.884995 
	C1162.118408,179.591782 1167.051636,176.482819 1168.795044,172.081589 
	C1170.815186,166.981735 1169.293091,161.493774 1164.417603,157.945862 
	C1145.732666,144.349152 1124.984497,139.806854 1102.487671,145.101257 
	C1061.356812,154.781052 1037.347900,195.549332 1048.959351,235.435074 
	C1057.199829,263.741425 1084.923096,285.418488 1114.762695,286.859924 
	C1133.218140,287.751465 1150.003052,282.967804 1164.792725,271.777588 
	C1170.067505,267.786591 1171.145996,260.801178 1167.614258,255.777054 
	C1164.184814,250.898468 1156.949829,249.690659 1151.528809,253.131821 
	C1150.267090,253.932770 1149.120483,254.912949 1147.877075,255.745453 
	C1130.162598,267.606720 1106.190918,266.888306 1088.366333,253.974106 
	C1072.050903,242.153290 1064.877441,221.061050 1070.563843,201.628845 
	C1076.460083,181.478943 1094.173950,167.517563 1116.700806,165.966248 
M1393.191772,172.324524 
	C1401.485962,192.063416 1409.778809,211.802887 1418.074829,231.541016 
	C1424.698608,247.300690 1431.322754,263.060181 1437.954224,278.816589 
	C1439.975098,283.618286 1443.178467,286.954987 1448.755249,286.979706 
	C1453.835327,287.002228 1457.124268,284.324554 1459.061157,279.747894 
	C1475.298950,241.383179 1491.583862,203.038300 1507.704224,164.624313 
	C1508.671265,162.319824 1509.005493,159.337036 1508.492432,156.911407 
	C1507.469971,152.077530 1504.049683,149.220825 1499.037720,148.656128 
	C1493.885742,148.075638 1489.705078,150.689072 1487.380615,156.166321 
	C1479.211060,175.417496 1471.140015,194.710526 1463.024658,213.984726 
	C1458.406006,224.954041 1453.773438,235.917587 1448.790649,247.728897 
	C1444.244263,236.932205 1440.093262,227.066635 1435.936279,217.203629 
	C1427.298706,196.709183 1418.718262,176.190338 1409.982056,155.738052 
	C1407.321533,149.509613 1401.415894,147.055542 1395.693359,149.350433 
	C1389.736206,151.739441 1387.399902,157.693436 1389.909546,164.229874 
	C1390.861084,166.708435 1391.936401,169.139542 1393.191772,172.324524 
M1260.000610,203.500000 
	C1260.000610,192.090744 1260.000610,180.681488 1260.000610,169.105331 
	C1271.041748,169.105331 1281.357178,169.215698 1291.668823,169.064728 
	C1298.046143,168.971359 1302.827148,164.023911 1302.825684,157.982895 
	C1302.824341,152.106140 1298.258789,147.110733 1292.060425,147.081696 
	C1263.413574,146.947433 1234.765503,146.943268 1206.118652,147.081238 
	C1199.652710,147.112366 1195.123413,152.321167 1195.436279,158.481644 
	C1195.750854,164.677475 1200.351562,169.027527 1207.005249,169.094620 
	C1217.261963,169.198044 1227.520264,169.121826 1237.999390,169.121826 
	C1237.999390,194.047150 1237.998535,218.348160 1237.999878,242.649155 
	C1238.000488,253.641815 1237.898926,264.635895 1238.046265,275.626617 
	C1238.142456,282.797241 1243.700562,287.727692 1250.353760,286.915192 
	C1256.367310,286.180786 1259.978027,281.602875 1259.988159,274.453430 
	C1260.021118,251.135666 1260.000488,227.817825 1260.000610,203.500000 
M854.766174,264.420654 
	C852.779053,264.493195 850.757507,264.839081 848.810486,264.593597 
	C836.919861,263.094391 829.281128,256.377991 824.942505,245.326157 
	C822.496338,239.094910 816.623901,236.748962 810.676697,239.021347 
	C805.060303,241.167343 802.425293,246.932571 804.312805,252.944824 
	C810.705139,273.306549 832.510925,288.418823 853.285706,286.884827 
	C877.998352,285.060120 898.585571,268.191986 900.006958,244.956085 
	C901.804443,215.570114 900.983398,186.012131 900.749756,156.532639 
	C900.727234,153.690659 897.476318,149.828995 894.696716,148.255920 
	C887.241150,144.036560 879.042664,150.010925 879.019470,159.284393 
	C878.955261,184.949020 879.075073,210.614258 878.965881,236.278595 
	C878.903137,251.026199 869.896240,261.645203 854.766174,264.420654 
M1337.118896,170.506226 
	C1337.118896,200.994156 1337.116577,231.482101 1337.121094,261.970032 
	C1337.121826,266.801056 1336.918945,271.647217 1337.229492,276.459320 
	C1337.639771,282.813965 1342.345337,287.065826 1348.339600,286.979401 
	C1354.290405,286.893585 1358.876343,282.453033 1359.259155,276.233948 
	C1359.432983,273.411743 1359.340576,270.572144 1359.340820,267.740417 
	C1359.344727,232.087875 1359.353882,196.435349 1359.336060,160.782806 
	C1359.331787,152.128159 1355.302490,147.132782 1348.360596,147.020294 
	C1341.230347,146.904755 1337.146118,151.985992 1337.120239,161.013306 
	C1337.112183,163.845505 1337.118896,166.677719 1337.118896,170.506226 
z"/>
<path fill="#030303" opacity="1.000000" stroke="none" 
	d="
M270.647644,324.343750 
	C240.595703,304.125122 222.300858,276.498749 215.008713,241.171143 
	C223.129623,241.171143 230.933517,241.171143 238.731277,241.171143 
	C249.638474,291.882812 300.769287,330.289307 358.785126,319.669373 
	C408.681030,310.535797 444.113953,266.784271 443.245911,216.310410 
	C442.391846,166.650467 405.704895,123.807755 358.035919,115.994904 
	C301.298035,106.695679 250.944901,142.815567 238.827454,194.764801 
	C231.129181,194.764801 223.370041,194.764801 215.180176,194.764801 
	C217.882965,179.370956 223.370239,165.143433 231.484726,151.933487 
	C259.824036,105.798569 311.075195,85.104439 359.092102,92.449318 
	C411.508392,100.467140 454.320282,140.515656 464.732422,194.533691 
	C478.095886,263.863068 430.099976,332.317291 360.696228,343.137604 
	C328.389069,348.174347 298.549500,341.909882 270.647644,324.343750 
z"/>
<path fill="#020202" opacity="1.000000" stroke="none" 
	d="
M317.810852,166.694275 
	C305.592407,172.059998 296.632477,180.444611 290.609894,191.864532 
	C289.343231,194.266418 288.021027,195.162537 285.283234,195.079498 
	C277.967773,194.857651 270.641174,195.003967 263.278839,195.003967 
	C269.578491,160.767807 308.848083,134.704498 348.838196,138.020004 
	C387.544067,141.229034 419.298462,175.847412 420.190521,215.807632 
	C421.122253,257.545898 390.710876,293.185303 349.626434,297.782501 
	C301.329620,303.186737 270.203613,269.041626 263.190765,240.998062 
	C271.224640,240.998062 279.172791,240.820007 287.097534,241.170898 
	C288.440399,241.230347 290.021698,243.363235 290.919708,244.877960 
	C302.127594,263.783356 318.730133,273.971497 340.624725,273.685120 
	C362.517151,273.398773 379.098206,262.913452 389.459351,243.538910 
	C400.369720,223.137314 396.968903,197.941544 381.531311,180.763336 
	C365.476959,162.898849 341.498077,157.510010 317.810852,166.694275 
z"/>
<path fill="#010101" opacity="1.000000" stroke="none" 
	d="
M113.798080,236.307846 
	C119.733078,229.698318 125.395546,223.377106 131.000168,217.120468 
	C125.830093,211.665054 119.524841,205.011795 112.685432,197.794907 
	C116.762604,197.794907 120.185837,197.785828 123.609001,197.796402 
	C144.261414,197.860260 164.915054,197.838974 185.564529,198.120911 
	C187.871277,198.152405 190.190842,199.837097 192.437561,200.896912 
	C194.410431,201.827560 196.271866,202.992249 198.224350,203.970047 
	C198.623825,204.170135 199.209137,203.999146 199.708801,203.999146 
	C236.847443,203.999161 273.986084,203.999130 311.405273,203.999130 
	C316.884399,194.517685 324.695343,188.144394 335.983948,186.762207 
	C351.446991,184.868881 365.727325,194.175110 370.090485,209.045776 
	C374.496613,224.062973 367.286621,240.006897 353.116791,246.580750 
	C339.151031,253.059921 322.297211,248.497040 313.922516,235.491760 
	C311.645844,231.956253 309.338074,230.873047 305.240204,230.894882 
	C270.431671,231.080246 235.621552,231.051819 200.812561,230.921234 
	C197.369370,230.908325 194.629868,231.403137 192.763901,234.463821 
	C190.915848,237.495087 188.214569,238.105606 184.754715,238.081436 
	C162.271210,237.924423 139.786057,238.011749 117.301521,237.974274 
	C115.904884,237.971939 114.508888,237.589294 113.112595,237.383575 
	C113.144485,237.249817 113.150986,237.102127 113.214737,236.985855 
	C113.293442,236.842300 113.419785,236.724869 113.798080,236.307846 
z"/>
<path fill="#030303" opacity="1.000000" stroke="none" 
	d="
M532.916626,184.912048 
	C545.915405,158.123672 566.626953,143.230621 596.405396,143.147888 
	C624.548157,143.069702 649.393921,162.624268 659.480408,191.517975 
	C671.452026,225.811584 654.988464,265.447449 622.351074,280.906982 
	C587.381653,297.471161 544.249268,278.545105 531.122314,240.742767 
	C524.647278,222.096115 525.022644,203.545349 532.916626,184.912048 
M588.232361,263.588593 
	C593.031555,263.546753 597.973999,264.242035 602.606506,263.342224 
	C630.515625,257.921265 647.206238,227.454849 638.047302,199.164703 
	C630.717590,176.524673 609.780945,162.641159 588.522461,166.323837 
	C565.826843,170.255478 549.509094,190.496750 549.385132,214.871674 
	C549.264587,238.577896 565.236938,258.956757 588.232361,263.588593 
z"/>
<path fill="#010101" opacity="1.000000" stroke="none" 
	d="
M695.872375,253.999939 
	C695.872375,222.679764 695.865601,191.859589 695.876099,161.039413 
	C695.879700,150.520813 699.430115,147.009995 710.008423,146.999191 
	C717.005432,146.992035 724.005798,147.137802 730.998779,146.969254 
	C746.434326,146.597137 759.269409,151.702866 767.423828,165.271942 
	C775.950989,179.461395 774.968811,193.747528 765.809753,207.786850 
	C773.588684,213.294846 779.700134,220.161057 783.014343,229.202133 
	C793.283752,257.217285 773.457520,286.007111 743.065918,286.925323 
	C731.248657,287.282349 719.410706,287.058441 707.583618,286.946960 
	C700.202209,286.877380 695.985352,282.495483 695.891724,274.991150 
	C695.806519,268.161713 695.872803,261.330414 695.872375,253.999939 
M759.633850,231.975433 
	C755.870178,229.381866 752.302795,224.985687 748.304138,224.550278 
	C738.373169,223.468918 728.245361,224.194717 718.350586,224.194717 
	C718.350586,237.586960 718.350586,251.147400 718.350586,264.877625 
	C726.512756,264.877625 734.327820,265.075592 742.129578,264.837433 
	C759.677612,264.301666 768.695068,247.965805 759.633850,231.975433 
M749.864868,191.001404 
	C752.961426,179.773254 747.481750,170.426666 736.671143,169.374832 
	C730.621704,168.786240 724.468018,169.268951 718.243774,169.268951 
	C718.243774,180.021988 718.243774,190.425354 718.243774,201.127365 
	C723.615784,201.127365 728.748474,201.042557 733.877319,201.147766 
	C741.123657,201.296387 746.288330,198.130859 749.864868,191.001404 
z"/>
<path fill="#030303" opacity="1.000000" stroke="none" 
	d="
M955.677429,243.002075 
	C955.677429,250.464111 955.677429,257.426270 955.677429,264.867401 
	C957.728943,264.867401 959.351562,264.867310 960.974182,264.867401 
	C976.970886,264.868347 992.967896,264.813202 1008.964172,264.896545 
	C1015.803711,264.932190 1020.718872,269.594574 1020.830872,275.808411 
	C1020.940674,281.902191 1015.889526,286.941925 1009.181946,286.968903 
	C987.686829,287.055359 966.190735,287.056396 944.695740,286.947784 
	C938.259094,286.915253 934.183838,282.952454 933.450317,276.549164 
	C933.280396,275.066284 933.327454,273.554993 933.327209,272.056793 
	C933.321411,235.397690 933.319702,198.738602 933.324219,162.079498 
	C933.325623,150.360077 936.720886,146.994949 948.511780,146.994308 
	C968.674316,146.993210 988.836914,146.951294 1008.999268,147.020508 
	C1015.299194,147.042145 1019.741821,150.780899 1020.695862,156.472321 
	C1021.509888,161.328308 1018.482239,166.647522 1013.564270,168.337585 
	C1011.583679,169.018219 1009.326416,169.091812 1007.193726,169.100159 
	C991.863831,169.160248 976.533508,169.132492 961.203369,169.132614 
	C959.567078,169.132629 957.930786,169.132629 955.988220,169.132629 
	C955.988220,181.399536 955.988220,193.316940 955.988220,205.867371 
	C957.701111,205.867371 959.471680,205.867279 961.242249,205.867371 
	C974.572815,205.868134 987.903748,205.812317 1001.233826,205.892792 
	C1008.228455,205.935013 1013.005798,210.396469 1013.095520,216.677765 
	C1013.189331,223.244476 1008.377808,227.943985 1001.209045,227.981354 
	C986.234192,228.059448 971.258545,228.005005 955.677429,228.005005 
	C955.677429,232.999298 955.677429,237.750748 955.677429,243.002075 
z"/>
<path fill="#010101" opacity="1.000000" stroke="none" 
	d="
M1617.523438,169.086212 
	C1599.267822,169.107773 1581.459717,169.107773 1563.326416,169.107773 
	C1563.326416,181.391937 1563.326416,193.429276 1563.326416,205.877884 
	C1578.583008,205.877884 1593.703735,205.798859 1608.822998,205.909256 
	C1617.111572,205.969772 1622.336182,212.876282 1619.982788,220.318787 
	C1618.467041,225.112015 1614.286621,227.963013 1608.398438,227.984131 
	C1594.567993,228.033737 1580.737183,228.000366 1566.906616,228.000580 
	C1565.771484,228.000595 1564.636475,228.000580 1563.000366,228.000580 
	C1563.000366,234.386292 1563.000244,240.494675 1563.000244,246.603058 
	C1563.000244,252.557327 1563.000366,258.511597 1563.000366,264.874329 
	C1578.733154,264.874329 1594.018311,264.874176 1609.303467,264.874481 
	C1611.636353,264.874512 1613.970093,264.832306 1616.301758,264.886200 
	C1623.261353,265.047089 1627.993652,269.442902 1628.082275,275.782715 
	C1628.172852,282.258911 1623.274048,286.934448 1616.076538,286.978394 
	C1603.412842,287.055756 1590.748291,287.000488 1578.084106,287.000458 
	C1569.752441,287.000458 1561.420166,287.056000 1553.089111,286.983276 
	C1545.159424,286.914062 1540.911133,282.834137 1540.900269,275.032410 
	C1540.846436,236.373398 1540.849365,197.714233 1540.897583,159.055206 
	C1540.907471,151.165436 1545.061401,147.043320 1552.958618,147.020523 
	C1573.954346,146.959946 1594.950562,146.968399 1615.946289,147.017822 
	C1622.848022,147.034058 1627.604858,151.078079 1628.053223,157.048141 
	C1628.520264,163.267273 1624.906860,167.573822 1617.523438,169.086212 
z"/>
<path fill="#030303" opacity="1.000000" stroke="none" 
	d="
M1116.237549,165.980957 
	C1094.173950,167.517563 1076.460083,181.478943 1070.563843,201.628845 
	C1064.877441,221.061050 1072.050903,242.153290 1088.366333,253.974106 
	C1106.190918,266.888306 1130.162598,267.606720 1147.877075,255.745453 
	C1149.120483,254.912949 1150.267090,253.932770 1151.528809,253.131821 
	C1156.949829,249.690659 1164.184814,250.898468 1167.614258,255.777054 
	C1171.145996,260.801178 1170.067505,267.786591 1164.792725,271.777588 
	C1150.003052,282.967804 1133.218140,287.751465 1114.762695,286.859924 
	C1084.923096,285.418488 1057.199829,263.741425 1048.959351,235.435074 
	C1037.347900,195.549332 1061.356812,154.781052 1102.487671,145.101257 
	C1124.984497,139.806854 1145.732666,144.349152 1164.417603,157.945862 
	C1169.293091,161.493774 1170.815186,166.981735 1168.795044,172.081589 
	C1167.051636,176.482819 1162.118408,179.591782 1157.144165,178.884995 
	C1154.947510,178.572861 1152.604492,177.610977 1150.831299,176.275650 
	C1140.684448,168.634277 1129.304077,165.341644 1116.237549,165.980957 
z"/>
<path fill="#030303" opacity="1.000000" stroke="none" 
	d="
M1393.073486,171.958405 
	C1391.936401,169.139542 1390.861084,166.708435 1389.909546,164.229874 
	C1387.399902,157.693436 1389.736206,151.739441 1395.693359,149.350433 
	C1401.415894,147.055542 1407.321533,149.509613 1409.982056,155.738052 
	C1418.718262,176.190338 1427.298706,196.709183 1435.936279,217.203629 
	C1440.093262,227.066635 1444.244263,236.932205 1448.790649,247.728897 
	C1453.773438,235.917587 1458.406006,224.954041 1463.024658,213.984726 
	C1471.140015,194.710526 1479.211060,175.417496 1487.380615,156.166321 
	C1489.705078,150.689072 1493.885742,148.075638 1499.037720,148.656128 
	C1504.049683,149.220825 1507.469971,152.077530 1508.492432,156.911407 
	C1509.005493,159.337036 1508.671265,162.319824 1507.704224,164.624313 
	C1491.583862,203.038300 1475.298950,241.383179 1459.061157,279.747894 
	C1457.124268,284.324554 1453.835327,287.002228 1448.755249,286.979706 
	C1443.178467,286.954987 1439.975098,283.618286 1437.954224,278.816589 
	C1431.322754,263.060181 1424.698608,247.300690 1418.074829,231.541016 
	C1409.778809,211.802887 1401.485962,192.063416 1393.073486,171.958405 
z"/>
<path fill="#010101" opacity="1.000000" stroke="none" 
	d="
M1260.000610,204.000000 
	C1260.000488,227.817825 1260.021118,251.135666 1259.988159,274.453430 
	C1259.978027,281.602875 1256.367310,286.180786 1250.353760,286.915192 
	C1243.700562,287.727692 1238.142456,282.797241 1238.046265,275.626617 
	C1237.898926,264.635895 1238.000488,253.641815 1237.999878,242.649155 
	C1237.998535,218.348160 1237.999390,194.047150 1237.999390,169.121826 
	C1227.520264,169.121826 1217.261963,169.198044 1207.005249,169.094620 
	C1200.351562,169.027527 1195.750854,164.677475 1195.436279,158.481644 
	C1195.123413,152.321167 1199.652710,147.112366 1206.118652,147.081238 
	C1234.765503,146.943268 1263.413574,146.947433 1292.060425,147.081696 
	C1298.258789,147.110733 1302.824341,152.106140 1302.825684,157.982895 
	C1302.827148,164.023911 1298.046143,168.971359 1291.668823,169.064728 
	C1281.357178,169.215698 1271.041748,169.105331 1260.000610,169.105331 
	C1260.000610,180.681488 1260.000610,192.090744 1260.000610,204.000000 
z"/>
<path fill="#020202" opacity="1.000000" stroke="none" 
	d="
M855.179565,264.358887 
	C869.896240,261.645203 878.903137,251.026199 878.965881,236.278595 
	C879.075073,210.614258 878.955261,184.949020 879.019470,159.284393 
	C879.042664,150.010925 887.241150,144.036560 894.696716,148.255920 
	C897.476318,149.828995 900.727234,153.690659 900.749756,156.532639 
	C900.983398,186.012131 901.804443,215.570114 900.006958,244.956085 
	C898.585571,268.191986 877.998352,285.060120 853.285706,286.884827 
	C832.510925,288.418823 810.705139,273.306549 804.312805,252.944824 
	C802.425293,246.932571 805.060303,241.167343 810.676697,239.021347 
	C816.623901,236.748962 822.496338,239.094910 824.942505,245.326157 
	C829.281128,256.377991 836.919861,263.094391 848.810486,264.593597 
	C850.757507,264.839081 852.779053,264.493195 855.179565,264.358887 
z"/>
<path fill="#030303" opacity="1.000000" stroke="none" 
	d="
M1337.118896,170.008087 
	C1337.118896,166.677719 1337.112183,163.845505 1337.120239,161.013306 
	C1337.146118,151.985992 1341.230347,146.904755 1348.360596,147.020294 
	C1355.302490,147.132782 1359.331787,152.128159 1359.336060,160.782806 
	C1359.353882,196.435349 1359.344727,232.087875 1359.340820,267.740417 
	C1359.340576,270.572144 1359.432983,273.411743 1359.259155,276.233948 
	C1358.876343,282.453033 1354.290405,286.893585 1348.339600,286.979401 
	C1342.345337,287.065826 1337.639771,282.813965 1337.229492,276.459320 
	C1336.918945,271.647217 1337.121826,266.801056 1337.121094,261.970032 
	C1337.116577,231.482101 1337.118896,200.994156 1337.118896,170.008087 
z"/>
<path fill="#FEFEFE" opacity="1.000000" stroke="none" 
	d="
M587.812927,263.477234 
	C565.236938,258.956757 549.264587,238.577896 549.385132,214.871674 
	C549.509094,190.496750 565.826843,170.255478 588.522461,166.323837 
	C609.780945,162.641159 630.717590,176.524673 638.047302,199.164703 
	C647.206238,227.454849 630.515625,257.921265 602.606506,263.342224 
	C597.973999,264.242035 593.031555,263.546753 587.812927,263.477234 
z"/>
<path fill="#FCFCFC" opacity="1.000000" stroke="none" 
	d="
M759.846069,232.280304 
	C768.695068,247.965805 759.677612,264.301666 742.129578,264.837433 
	C734.327820,265.075592 726.512756,264.877625 718.350586,264.877625 
	C718.350586,251.147400 718.350586,237.586960 718.350586,224.194717 
	C728.245361,224.194717 738.373169,223.468918 748.304138,224.550278 
	C752.302795,224.985687 755.870178,229.381866 759.846069,232.280304 
z"/>
<path fill="#FCFCFC" opacity="1.000000" stroke="none" 
	d="
M749.697632,191.354858 
	C746.288330,198.130859 741.123657,201.296387 733.877319,201.147766 
	C728.748474,201.042557 723.615784,201.127365 718.243774,201.127365 
	C718.243774,190.425354 718.243774,180.021988 718.243774,169.268951 
	C724.468018,169.268951 730.621704,168.786240 736.671143,169.374832 
	C747.481750,170.426666 752.961426,179.773254 749.697632,191.354858 
z"/>
</svg>