<svg id="Layer_1" data-name="Layer 1" xmlns="http://www.w3.org/2000/svg" viewBox="0 0 491.6 108.6"><defs><style>.cls-1{fill:#010101;}</style></defs><path class="cls-1" d="M102.69,12.11v18.4a54.9,54.9,0,0,0-25.3-25.3h18.4V-.19H-.11v95.9h5.4V77.31a54.9,54.9,0,0,0,25.3,25.3H12.19V108h95.9V12.11ZM5.29,5.21h25.3a54.9,54.9,0,0,0-25.3,25.3Zm0,48.7A48.7,48.7,0,1,1,54,102.61,48.76,48.76,0,0,1,5.29,53.91Zm72.2,48.7a54.9,54.9,0,0,0,25.3-25.3v25.3Z" transform="translate(0.11 0.19)"/><path class="cls-1" d="M156.09,65.51a12.07,12.07,0,0,1-17,0c-3.4-3.4-4-8.2-4-13.4s.6-10,4-13.4a12.07,12.07,0,0,1,17,0c3.4,3.4,4,8.2,4,13.4S159.49,62.11,156.09,65.51Zm-2.8-23.9a8,8,0,0,0-11.4,0c-2.6,2.8-2.7,7.2-2.7,10.6s.1,7.8,2.7,10.6a8,8,0,0,0,11.4,0c2.6-2.8,2.7-7.2,2.7-10.6S155.89,44.31,153.29,41.61Z" transform="translate(0.11 0.19)"/><path class="cls-1" d="M178.69,68.41V53.71c0-3.5-1.4-5.6-4.9-5.6-2.2,0-3.9,1.5-4.9,3.6-.8,1.7-.8,4.1-.8,5.9v10.8h-3.8V45.21h3.3l.3,3.5a7.6,7.6,0,0,1,6.8-4.1c5.1,0,7.8,3.2,7.8,8.5v15.3Z" transform="translate(0.11 0.19)"/><path class="cls-1" d="M195.19,68.71c-4.9,0-6.2-3.2-6.2-6.3V48.51h-4.3v-3.3h4.4v-5.9l3.8-.9v6.8h6.7v3.3h-6.7v13.4c0,2.2.9,3.2,3,3.2a28.51,28.51,0,0,0,3.9-.4V68A15.86,15.86,0,0,1,195.19,68.71Z" transform="translate(0.11 0.19)"/><path class="cls-1" d="M220.09,68.71a3.24,3.24,0,0,1-3.2-3.5h-.1a8.26,8.26,0,0,1-7.3,3.8c-5.2,0-7.7-3.6-7.7-7.2,0-3,1.9-6.9,8-7.3l6.9-.4v-1.7a4.33,4.33,0,0,0-1.2-3.5,5.26,5.26,0,0,0-3.7-1.2,5.56,5.56,0,0,0-4.1,1.4,3.93,3.93,0,0,0-1.1,2.8h-3.7a6.86,6.86,0,0,1,2-4.9c1.5-1.7,4.2-2.5,6.9-2.5,4.4,0,6.9,1.9,7.9,4.5a10,10,0,0,1,.7,3.6v11.2c0,1.2.5,1.6,1.2,1.6a7.72,7.72,0,0,0,1-.1v2.9A5.1,5.1,0,0,1,220.09,68.71Zm-3.4-11.5-6.1.4c-2.3.1-4.9,1.2-4.9,4.2,0,2.1,1.2,4,4.5,4a6.19,6.19,0,0,0,4.6-1.9,7.67,7.67,0,0,0,1.9-5.3Z" transform="translate(0.11 0.19)"/><path class="cls-1" d="M236,48.81a6.29,6.29,0,0,0-4.3,1.8c-1.8,1.8-2,5-2,7.4v10.3H226V45.11h3.3l.3,4.1a7.07,7.07,0,0,1,6.7-4.2,10.87,10.87,0,0,1,1.8.1v3.8A15.48,15.48,0,0,0,236,48.81Z" transform="translate(0.11 0.19)"/><path class="cls-1" d="M240.69,39.81v-4.6h4.4v4.6Zm.3,28.6V45.21h3.9v23.2Z" transform="translate(0.11 0.19)"/><path class="cls-1" d="M265.79,66.31A9.18,9.18,0,0,1,259,69a9.58,9.58,0,0,1-6.8-2.7c-2.4-2.5-3.2-5.8-3.2-9.5s.8-7,3.2-9.5a9.18,9.18,0,0,1,6.8-2.7,9.58,9.58,0,0,1,6.8,2.7c2.4,2.5,3.2,5.8,3.2,9.5S268.19,63.81,265.79,66.31ZM263,49.61a5.32,5.32,0,0,0-4-1.7,5.16,5.16,0,0,0-4,1.7c-1.6,1.7-2.1,4.5-2.1,7.2s.5,5.5,2.1,7.2a5.32,5.32,0,0,0,4,1.7,5.16,5.16,0,0,0,4-1.7c1.6-1.7,2.1-4.5,2.1-7.2S264.59,51.31,263,49.61Z" transform="translate(0.11 0.19)"/><path class="cls-1" d="M302.59,68.41l-2.6-7.7h-13.7l-2.5,7.7h-4l11.1-32.5h4.6l11.2,32.5Zm-9.5-28.5-5.6,16.9h11.2Z" transform="translate(0.11 0.19)"/><path class="cls-1" d="M324.59,66.41c-1.7,1.8-4.4,2.6-7.3,2.6a10,10,0,0,1-7.3-2.6,7.49,7.49,0,0,1-2.2-5.3h3.8a4.54,4.54,0,0,0,1.8,3.6,6.7,6.7,0,0,0,4,1.1,5.79,5.79,0,0,0,4.1-1.3,3.44,3.44,0,0,0,1.1-2.5c0-1.7-1.2-3-3.5-3.3-1-.1-3.5-.5-5.1-.7-3.4-.6-5.5-2.7-5.5-6.2a6.24,6.24,0,0,1,1.9-4.5,8.87,8.87,0,0,1,6.6-2.6c3,0,5.7,1,7.2,2.9a6.67,6.67,0,0,1,1.6,4.5H322a4,4,0,0,0-1.3-2.9,6.57,6.57,0,0,0-6.3-.7,3.5,3.5,0,0,0-2.3,3.1c0,1.9,1.2,2.8,3,3,1.2.2,3,.4,5.4.8,3.2.6,5.7,2.9,5.7,6.4A5.69,5.69,0,0,1,324.59,66.41Z" transform="translate(0.11 0.19)"/><path class="cls-1" d="M346,66.41c-1.7,1.8-4.4,2.6-7.3,2.6a10,10,0,0,1-7.3-2.6,7.49,7.49,0,0,1-2.2-5.3H333a4.54,4.54,0,0,0,1.8,3.6,6.7,6.7,0,0,0,4,1.1,5.79,5.79,0,0,0,4.1-1.3A3.44,3.44,0,0,0,344,62c0-1.7-1.2-3-3.5-3.3-1-.1-3.5-.5-5.1-.7-3.4-.6-5.5-2.7-5.5-6.2a6.24,6.24,0,0,1,1.9-4.5,8.87,8.87,0,0,1,6.6-2.6c3,0,5.7,1,7.2,2.9a6.67,6.67,0,0,1,1.6,4.5h-3.8a4,4,0,0,0-1.3-2.9,6.57,6.57,0,0,0-6.3-.7,3.5,3.5,0,0,0-2.3,3.1c0,1.9,1.2,2.8,3,3,1.2.2,3,.4,5.4.8,3.2.6,5.7,2.9,5.7,6.4A6,6,0,0,1,346,66.41Z" transform="translate(0.11 0.19)"/><path class="cls-1" d="M367.09,66.31a9.18,9.18,0,0,1-6.8,2.7,9.58,9.58,0,0,1-6.8-2.7c-2.4-2.5-3.2-5.8-3.2-9.5s.8-7,3.2-9.5a9.18,9.18,0,0,1,6.8-2.7,9.58,9.58,0,0,1,6.8,2.7c2.4,2.5,3.2,5.8,3.2,9.5S369.49,63.81,367.09,66.31Zm-2.8-16.7a5.56,5.56,0,0,0-8,0c-1.6,1.7-2.1,4.5-2.1,7.2s.5,5.5,2.1,7.2a5.56,5.56,0,0,0,8,0c1.6-1.7,2.1-4.5,2.1-7.2S365.89,51.31,364.29,49.61Z" transform="translate(0.11 0.19)"/><path class="cls-1" d="M389.29,66.51a8.74,8.74,0,0,1-6.5,2.5,9.23,9.23,0,0,1-8.2-4.4,14,14,0,0,1-1.9-7.8c0-3.5.7-6,1.9-7.8a9.32,9.32,0,0,1,8.2-4.4,8.5,8.5,0,0,1,6.4,2.5,9.1,9.1,0,0,1,2.7,6h-3.8a6,6,0,0,0-1.6-3.6,5.06,5.06,0,0,0-3.6-1.4,5.52,5.52,0,0,0-3.9,1.5c-1.8,1.6-2.3,4.5-2.3,7.3s.5,5.7,2.3,7.3a5.52,5.52,0,0,0,3.9,1.5,5,5,0,0,0,3.8-1.6,6,6,0,0,0,1.5-3.4H392A9.28,9.28,0,0,1,389.29,66.51Z" transform="translate(0.11 0.19)"/><path class="cls-1" d="M395.39,39.81v-4.6h4.4v4.6Zm.2,28.6V45.21h3.9v23.2Z" transform="translate(0.11 0.19)"/><path class="cls-1" d="M421.29,68.71a3.24,3.24,0,0,1-3.2-3.5H418a8.26,8.26,0,0,1-7.3,3.8c-5.2,0-7.7-3.6-7.7-7.2,0-3,1.9-6.9,8-7.3l6.9-.4v-1.7a4.33,4.33,0,0,0-1.2-3.5,5.26,5.26,0,0,0-3.7-1.2,5.56,5.56,0,0,0-4.1,1.4,3.93,3.93,0,0,0-1.1,2.8h-3.7a6.86,6.86,0,0,1,2-4.9c1.5-1.7,4.2-2.5,6.9-2.5,4.4,0,6.9,1.9,7.9,4.5a10,10,0,0,1,.7,3.6v11.2c0,1.2.5,1.6,1.2,1.6a7.72,7.72,0,0,0,1-.1v2.9A5.34,5.34,0,0,1,421.29,68.71Zm-3.5-11.5-6.1.4c-2.3.1-4.9,1.2-4.9,4.2,0,2.1,1.2,4,4.5,4a6.19,6.19,0,0,0,4.6-1.9,7.67,7.67,0,0,0,1.9-5.3Z" transform="translate(0.11 0.19)"/><path class="cls-1" d="M434,68.71c-4.9,0-6.2-3.2-6.2-6.3V48.51h-4.4v-3.3h4.4v-5.9l3.8-.9v6.8h6.7v3.3h-6.7v13.4c0,2.2.9,3.2,3,3.2a28.51,28.51,0,0,0,3.9-.4V68A14.51,14.51,0,0,1,434,68.71Z" transform="translate(0.11 0.19)"/><path class="cls-1" d="M441.59,39.81v-4.6H446v4.6Zm.3,28.6V45.21h3.9v23.2Z" transform="translate(0.11 0.19)"/><path class="cls-1" d="M466.49,66.31a9.18,9.18,0,0,1-6.8,2.7,9.58,9.58,0,0,1-6.8-2.7c-2.4-2.5-3.2-5.8-3.2-9.5s.8-7,3.2-9.5a9.18,9.18,0,0,1,6.8-2.7,9.58,9.58,0,0,1,6.8,2.7c2.4,2.5,3.2,5.8,3.2,9.5S468.89,63.81,466.49,66.31Zm-2.8-16.7a5.32,5.32,0,0,0-4-1.7,5.16,5.16,0,0,0-4,1.7c-1.6,1.7-2.1,4.5-2.1,7.2s.5,5.5,2.1,7.2a5.32,5.32,0,0,0,4,1.7,5.16,5.16,0,0,0,4-1.7c1.6-1.7,2.1-4.5,2.1-7.2S465.29,51.31,463.69,49.61Z" transform="translate(0.11 0.19)"/><path class="cls-1" d="M487.69,68.41V53.71c0-3.5-1.4-5.6-4.9-5.6-2.2,0-3.9,1.5-4.9,3.6-.8,1.7-.8,4.1-.8,5.9v10.8h-3.8V45.21h3.3l.3,3.5a7.6,7.6,0,0,1,6.8-4.1c5.1,0,7.8,3.2,7.8,8.5v15.3Z" transform="translate(0.11 0.19)"/><path class="cls-1" d="M151.89,105.71a9.18,9.18,0,0,1-6.8,2.7,9.58,9.58,0,0,1-6.8-2.7c-2.4-2.5-3.2-5.8-3.2-9.5s.8-7,3.2-9.5a9.18,9.18,0,0,1,6.8-2.7,9.58,9.58,0,0,1,6.8,2.7c2.4,2.5,3.2,5.8,3.2,9.5S154.29,103.21,151.89,105.71ZM149.09,89a5.56,5.56,0,0,0-8,0c-1.6,1.7-2.1,4.5-2.1,7.2s.5,5.5,2.1,7.2a5.56,5.56,0,0,0,8,0c1.6-1.7,2.1-4.5,2.1-7.2S150.69,90.71,149.09,89Z" transform="translate(0.11 0.19)"/><path class="cls-1" d="M167.79,77.51a3,3,0,0,0-3.2,3.2v3.9h6.5v3.3h-6.5v19.9h-3.8V87.91h-4.1v-3.3h4.1v-4.1a6.12,6.12,0,0,1,6.5-6.2,26.05,26.05,0,0,1,4.2.4V78A17.42,17.42,0,0,0,167.79,77.51Z" transform="translate(0.11 0.19)"/><path class="cls-1" d="M203,107.81l-2.6-7.7h-13.7l-2.5,7.7h-4l11.1-32.5h4.6l11.2,32.5Zm-9.5-28.4-5.6,16.9h11.2Z" transform="translate(0.11 0.19)"/><path class="cls-1" d="M220.09,88.21a6.29,6.29,0,0,0-4.3,1.8c-1.8,1.8-2,5-2,7.4v10.3h-3.7V84.51h3.3l.3,4.1a7.07,7.07,0,0,1,6.7-4.2,10.87,10.87,0,0,1,1.8.1v3.8C221.49,88.31,220.69,88.21,220.09,88.21Z" transform="translate(0.11 0.19)"/><path class="cls-1" d="M240.09,105.91a8.74,8.74,0,0,1-6.5,2.5,9.23,9.23,0,0,1-8.2-4.4,14,14,0,0,1-1.9-7.8c0-3.5.7-6,1.9-7.8a9.32,9.32,0,0,1,8.2-4.4,8.5,8.5,0,0,1,6.4,2.5,9.1,9.1,0,0,1,2.7,6h-3.8a6,6,0,0,0-1.6-3.6,5.06,5.06,0,0,0-3.6-1.4,5.52,5.52,0,0,0-3.9,1.5c-1.8,1.6-2.3,4.5-2.3,7.3s.5,5.7,2.3,7.3a5.52,5.52,0,0,0,3.9,1.5,5,5,0,0,0,3.8-1.6,6,6,0,0,0,1.5-3.4h3.8A9,9,0,0,1,240.09,105.91Z" transform="translate(0.11 0.19)"/><path class="cls-1" d="M260.89,107.81V93.11c0-3.5-1.4-5.6-4.9-5.6-2.2,0-3.9,1.5-4.9,3.6-.8,1.7-.8,4.1-.8,5.9v10.8h-3.8V74.71h3.8v13a7.5,7.5,0,0,1,6.6-3.7c5.1,0,7.8,3.2,7.8,8.5v15.3Z" transform="translate(0.11 0.19)"/><path class="cls-1" d="M269.19,79.31v-4.6h4.4v4.6Zm.3,28.5V84.61h3.9v23.2Z" transform="translate(0.11 0.19)"/><path class="cls-1" d="M286.69,108.11c-4.9,0-6.2-3.2-6.2-6.3V87.91h-4.4v-3.3h4.4v-5.9l3.8-.9v6.8H291v3.3h-6.7v13.4c0,2.2.9,3.2,3,3.2a28.51,28.51,0,0,0,3.9-.4v3.3A12,12,0,0,1,286.69,108.11Z" transform="translate(0.11 0.19)"/><path class="cls-1" d="M312.59,97.51h-15.9a8.53,8.53,0,0,0,2.2,5.8A5.35,5.35,0,0,0,303,105a5.68,5.68,0,0,0,4.2-1.5,4.92,4.92,0,0,0,1.3-2.5h3.7a8.05,8.05,0,0,1-3.5,5.7,10.07,10.07,0,0,1-5.7,1.7,9.61,9.61,0,0,1-7.5-3.5,13.08,13.08,0,0,1-2.8-8.6,14.71,14.71,0,0,1,1.7-7.4,9.63,9.63,0,0,1,8.5-4.9,8.9,8.9,0,0,1,6.9,3,12,12,0,0,1,2.8,8.2Zm-5.2-8.1a5.16,5.16,0,0,0-4.5-2.1c-4.1,0-6.1,3.4-6.2,6.8h12A8.92,8.92,0,0,0,307.39,89.41Z" transform="translate(0.11 0.19)"/><path class="cls-1" d="M332.19,105.91a8.74,8.74,0,0,1-6.5,2.5,9.23,9.23,0,0,1-8.2-4.4,14,14,0,0,1-1.9-7.8c0-3.5.7-6,1.9-7.8a9.32,9.32,0,0,1,8.2-4.4,8.5,8.5,0,0,1,6.4,2.5,9.1,9.1,0,0,1,2.7,6H331a6,6,0,0,0-1.6-3.6,5.06,5.06,0,0,0-3.6-1.4,5.52,5.52,0,0,0-3.9,1.5c-1.8,1.6-2.3,4.5-2.3,7.3s.5,5.7,2.3,7.3a5.52,5.52,0,0,0,3.9,1.5,5,5,0,0,0,3.8-1.6,6,6,0,0,0,1.5-3.4h3.8A9,9,0,0,1,332.19,105.91Z" transform="translate(0.11 0.19)"/><path class="cls-1" d="M347,108.11c-4.9,0-6.2-3.2-6.2-6.3V87.91h-4.4v-3.3h4.4v-5.9l3.8-.9v6.8h6.7v3.3h-6.7v13.4c0,2.2.9,3.2,3,3.2a28.51,28.51,0,0,0,3.9-.4v3.3A12.41,12.41,0,0,1,347,108.11Z" transform="translate(0.11 0.19)"/><path class="cls-1" d="M370.29,105.81c-1.7,1.8-4.4,2.6-7.3,2.6a10,10,0,0,1-7.3-2.6,7.49,7.49,0,0,1-2.2-5.3h3.8a4.54,4.54,0,0,0,1.8,3.6,6.7,6.7,0,0,0,4,1.1,5.79,5.79,0,0,0,4.1-1.3,3.44,3.44,0,0,0,1.1-2.5c0-1.7-1.2-3-3.5-3.3-1-.1-3.5-.5-5.1-.7-3.4-.6-5.5-2.7-5.5-6.2a6.24,6.24,0,0,1,1.9-4.5,8.87,8.87,0,0,1,6.6-2.6c3,0,5.7,1,7.2,2.9a6.67,6.67,0,0,1,1.6,4.5h-3.8a4,4,0,0,0-1.3-2.9,6.57,6.57,0,0,0-6.3-.7,3.5,3.5,0,0,0-2.3,3.1c0,1.9,1.2,2.8,3,3,1.2.2,3,.4,5.4.8,3.2.6,5.7,2.9,5.7,6.4A5.69,5.69,0,0,1,370.29,105.81Z" transform="translate(0.11 0.19)"/></svg>